<svg width="852" height="914" viewBox="0 0 852 914" fill="none" xmlns="http://www.w3.org/2000/svg">
<path d="M365.288 141.211L334.932 193.792L92.0745 334.003L61.7252 316.478V176.262L122.431 141.211V246.372L304.575 141.211V36.0503L365.288 1.00003" fill="#1A6699"/>
<path d="M365.288 141.211L334.932 193.792L92.0745 334.003L61.7252 316.478V176.262L122.431 141.211V246.372L304.575 141.211V36.0503L365.288 1.00002V141.211V141.211Z" stroke="white" stroke-width="1.25" stroke-miterlimit="10" stroke-linecap="round" stroke-linejoin="round"/>
<path d="M122.431 141.211V246.372L183.15 211.317V176.261L122.431 141.211Z" fill="#1A6699"/>
<path d="M122.431 141.211V246.372L183.15 211.317V176.261L122.431 141.211V141.211Z" stroke="white" stroke-width="1.25" stroke-miterlimit="10" stroke-linecap="round" stroke-linejoin="round"/>
<path d="M334.931 193.792L92.0741 334.003L150.48 369.058L395.643 228.847L334.931 193.792Z" fill="#1A6699"/>
<path d="M334.931 193.792L92.0741 334.003L150.48 369.058L395.643 228.847L334.931 193.792Z" stroke="white" stroke-width="1.25" stroke-miterlimit="10" stroke-linecap="round" stroke-linejoin="round"/>
<path d="M365.288 1.00008V71.1057L426 36.0504" fill="#1A6699"/>
<path d="M365.288 1.00008V71.1057L426 36.0504L365.288 1.00008Z" stroke="white" stroke-width="1.25" stroke-miterlimit="10" stroke-linecap="round" stroke-linejoin="round"/>
<path d="M365.288 141.211V174.51L410.823 201.503L395.643 228.847L334.932 193.792" fill="#1A6699"/>
<path d="M365.288 141.211V174.51L410.823 201.503L395.643 228.847L334.932 193.792L365.288 141.211V141.211Z" stroke="white" stroke-width="1.25" stroke-miterlimit="10" stroke-linecap="round" stroke-linejoin="round"/>
<path d="M668.858 246.372H608.146L365.288 106.156L365.292 71.1105L486.721 1.00493L547.429 36.0503L456.359 88.6307L638.502 193.792L729.575 141.211L790.288 176.261" fill="#D91A4D"/>
<path d="M668.858 246.372H608.146L365.288 106.156L365.292 71.1105L486.721 1.00493L547.429 36.0503L456.359 88.6307L638.502 193.792L729.575 141.211L790.288 176.261L668.858 246.372V246.372Z" stroke="white" stroke-width="1.25" stroke-miterlimit="10" stroke-linecap="round" stroke-linejoin="round"/>
<path d="M547.428 36.0506L456.358 88.631L517.077 123.691L547.433 106.161L547.428 36.0506Z" fill="#D91A4D"/>
<path d="M547.428 36.0506L456.358 88.631L517.077 123.691L547.433 106.161L547.428 36.0506V36.0506Z" stroke="white" stroke-width="1.25" stroke-miterlimit="10" stroke-linecap="round" stroke-linejoin="round"/>
<path d="M608.145 246.372L365.288 106.156L364.135 174.268L608.145 316.478V246.372Z" fill="#D91A4D"/>
<path d="M608.145 246.372L365.288 106.156L364.135 174.268L608.145 316.478V246.372Z" stroke="white" stroke-width="1.25" stroke-miterlimit="10" stroke-linecap="round" stroke-linejoin="round"/>
<path d="M790.287 176.262L729.575 211.317L790.287 246.367" fill="#D91A4D"/>
<path d="M790.287 176.262L729.575 211.317L790.287 246.367V176.262V176.262Z" stroke="white" stroke-width="1.25" stroke-miterlimit="10" stroke-linecap="round" stroke-linejoin="round"/>
<path d="M668.858 246.372L640.021 263.022L639.412 315.954L608.146 316.478V246.372" fill="#D91A4D"/>
<path d="M668.858 246.372L640.021 263.022L639.412 315.954L608.146 316.478V246.372H668.858Z" stroke="white" stroke-width="1.25" stroke-miterlimit="10" stroke-linecap="round" stroke-linejoin="round"/>
<path d="M729.57 561.851L699.214 509.272V228.847L729.565 211.327L850.995 281.432L851 351.533L759.926 298.953V509.274L851 561.853V631.958" fill="#1A6699"/>
<path d="M729.57 561.851L699.214 509.272V228.847L729.565 211.327L850.995 281.432L851 351.533L759.926 298.953V509.274L851 561.853V631.958L729.57 561.851V561.851Z" stroke="white" stroke-width="1.25" stroke-miterlimit="10" stroke-linecap="round" stroke-linejoin="round"/>
<path d="M851 351.533L759.927 298.952V369.063L790.283 386.588L851 351.533Z" fill="#1A6699"/>
<path d="M851 351.533L759.927 298.952V369.063L790.283 386.588L851 351.533V351.533Z" stroke="white" stroke-width="1.25" stroke-miterlimit="10" stroke-linecap="round" stroke-linejoin="round"/>
<path d="M699.214 509.272V228.847L639.654 261.899L638.502 544.324L699.214 509.272Z" fill="#1A6699"/>
<path d="M699.214 509.272V228.847L639.654 261.899L638.502 544.324L699.214 509.272V509.272Z" stroke="white" stroke-width="1.25" stroke-miterlimit="10" stroke-linecap="round" stroke-linejoin="round"/>
<path d="M850.999 631.958L790.287 596.905V667.01" fill="#1A6699"/>
<path d="M850.999 631.958L790.287 596.905V667.01L850.999 631.958V631.958Z" stroke="white" stroke-width="1.25" stroke-miterlimit="10" stroke-linecap="round" stroke-linejoin="round"/>
<path d="M729.57 561.851L700.733 545.201L654.592 571.139L638.502 544.324L699.214 509.272" fill="#1A6699"/>
<path d="M729.57 561.851L700.733 545.201L654.592 571.139L638.502 544.324L699.214 509.272L729.57 561.851Z" stroke="white" stroke-width="1.25" stroke-miterlimit="10" stroke-linecap="round" stroke-linejoin="round"/>
<path d="M486.713 772.172L517.067 719.591L759.926 579.378L790.272 596.905V737.118L729.57 772.172V667.012L547.423 772.172V877.332L486.713 912.386" fill="#D91A4D"/>
<path d="M486.713 772.172L517.067 719.591L759.926 579.378L790.272 596.905V737.118L729.57 772.172V667.012L547.423 772.172V877.332L486.713 912.386V772.172V772.172Z" stroke="white" stroke-width="1.25" stroke-miterlimit="10" stroke-linecap="round" stroke-linejoin="round"/>
<path d="M729.57 772.172V667.012L668.848 702.064V737.118L729.57 772.172Z" fill="#D91A4D"/>
<path d="M729.57 772.172V667.012L668.848 702.064V737.118L729.57 772.172Z" stroke="white" stroke-width="1.25" stroke-miterlimit="10" stroke-linecap="round" stroke-linejoin="round"/>
<path d="M517.067 719.591L759.926 579.378L701.519 544.326L456.357 684.539L517.067 719.591Z" fill="#D91A4D"/>
<path d="M517.067 719.591L759.926 579.378L701.519 544.326L456.357 684.539L517.067 719.591Z" stroke="white" stroke-width="1.25" stroke-miterlimit="10" stroke-linecap="round" stroke-linejoin="round"/>
<path d="M486.713 912.386V842.278L426 877.332" fill="#D91A4D"/>
<path d="M486.713 912.386V842.278L426 877.332L486.713 912.386Z" stroke="white" stroke-width="1.25" stroke-miterlimit="10" stroke-linecap="round" stroke-linejoin="round"/>
<path d="M486.713 772.172V738.871L441.179 711.88L456.357 684.539L517.067 719.591" fill="#D91A4D"/>
<path d="M486.713 772.172V738.871L441.179 711.88L456.357 684.539L517.067 719.591L486.713 772.172V772.172Z" stroke="white" stroke-width="1.25" stroke-miterlimit="10" stroke-linecap="round" stroke-linejoin="round"/>
<path d="M183.142 667.012L243.856 667.01L486.711 807.224L486.707 842.27L365.279 912.378L304.569 877.332L395.641 824.751L213.497 719.589L122.427 772.17L61.7135 737.118" fill="#1A6699"/>
<path d="M183.142 667.012L243.856 667.01L486.711 807.224L486.707 842.27L365.279 912.378L304.569 877.332L395.641 824.751L213.497 719.589L122.427 772.17L61.7135 737.118L183.142 667.012Z" stroke="white" stroke-width="1.25" stroke-miterlimit="10" stroke-linecap="round" stroke-linejoin="round"/>
<path d="M304.569 877.332L395.641 824.751L334.924 789.693L304.567 807.22L304.569 877.332Z" fill="#1A6699"/>
<path d="M304.569 877.332L395.641 824.751L334.924 789.693L304.567 807.22L304.569 877.332Z" stroke="white" stroke-width="1.25" stroke-miterlimit="10" stroke-linecap="round" stroke-linejoin="round"/>
<path d="M243.855 667.01L486.711 807.224L487.867 739.116L243.855 596.907V667.01Z" fill="#1A6699"/>
<path d="M243.855 667.01L486.711 807.224L487.867 739.116L243.855 596.907V667.01V667.01Z" stroke="white" stroke-width="1.25" stroke-miterlimit="10" stroke-linecap="round" stroke-linejoin="round"/>
<path d="M61.7135 737.118L122.427 702.064L61.7135 667.012" fill="#1A6699"/>
<path d="M61.7135 737.118L122.427 702.064L61.7135 667.012V737.118V737.118Z" stroke="white" stroke-width="1.25" stroke-miterlimit="10" stroke-linecap="round" stroke-linejoin="round"/>
<path d="M183.142 667.012L211.98 650.36L212.589 597.432L243.856 596.906V667.01" fill="#1A6699"/>
<path d="M183.142 667.012L211.98 650.36L212.589 597.432L243.856 596.906V667.01L183.142 667.012V667.012Z" stroke="white" stroke-width="1.25" stroke-miterlimit="10" stroke-linecap="round" stroke-linejoin="round"/>
<path d="M122.429 351.533L152.788 404.108V684.537L122.433 702.056L1.0058 631.95L1 561.851L92.0722 614.431V404.108L1.00193 351.528L1 281.427" fill="#D91A4D"/>
<path d="M122.429 351.533L152.788 404.108V684.537L122.433 702.056L1.0058 631.95L1 561.851L92.0722 614.431V404.108L1.00193 351.528L1 281.427L122.429 351.533Z" stroke="white" stroke-width="1.25" stroke-miterlimit="10" stroke-linecap="round" stroke-linejoin="round"/>
<path d="M1 561.851L92.0722 614.431L92.0742 544.32L61.7171 526.793L1 561.851Z" fill="#D91A4D"/>
<path d="M1 561.851L92.0722 614.431L92.0742 544.32L61.7171 526.793L1 561.851Z" stroke="white" stroke-width="1.25" stroke-miterlimit="10" stroke-linecap="round" stroke-linejoin="round"/>
<path d="M152.787 404.109V684.537L212.347 651.483L213.501 369.058L152.787 404.109Z" fill="#D91A4D"/>
<path d="M152.787 404.109V684.537L212.347 651.483L213.501 369.058L152.787 404.109Z" stroke="white" stroke-width="1.25" stroke-miterlimit="10" stroke-linecap="round" stroke-linejoin="round"/>
<path d="M1 281.428L61.7156 316.478L61.7136 246.372" fill="#D91A4D"/>
<path d="M1 281.428L61.7156 316.478L61.7136 246.372L1 281.428Z" stroke="white" stroke-width="1.25" stroke-miterlimit="10" stroke-linecap="round" stroke-linejoin="round"/>
<path d="M122.429 351.533L151.268 368.182L197.41 342.244L213.501 369.058L152.787 404.108" fill="#D91A4D"/>
<path d="M122.429 351.533L151.268 368.182L197.41 342.244L213.501 369.058L152.787 404.108L122.429 351.533Z" stroke="white" stroke-width="1.25" stroke-miterlimit="10" stroke-linecap="round" stroke-linejoin="round"/>
</svg>
